<svg width="19" height="20" viewBox="0 0 19 20" fill="none" xmlns="http://www.w3.org/2000/svg">
<g clip-path="url(#clip0_92764_2)">
<path d="M19 10C19 4.4758 14.748 -4.41074e-06 9.5 -4.41074e-06C4.25204 -4.41074e-06 0 4.4758 0 10C0 15.5242 4.25204 20 9.5 20C14.748 20 19 15.5242 19 10ZM9.29417 15.4242L5.76254 5.78246C5.60896 5.335 5.86625 4.9442 6.50908 5.0892L6.50826 5.08833L13.8558 6.73C14.3767 6.85166 14.5033 7.17753 14.2579 7.63333L12.5075 10.1333L13.6112 11.3392C13.7378 11.4725 13.8447 11.585 13.8447 11.8433L11.4277 11.6658L7.45117 7.03246C7.28251 6.83086 7.18757 7.07753 7.35541 7.34333L10.7801 13.0691L10.0487 15.5375C9.88709 16.0733 9.53958 16.085 9.29417 15.4242Z" fill="black"/>
</g>
<defs>
<clipPath id="clip0_92764_2">
<rect width="20" height="19" fill="white" transform="translate(0 20) rotate(-90)"/>
</clipPath>
</defs>
</svg>
